<?xml version="1.0" encoding="UTF-8" standalone="no"?>
<!-- Created with Inkscape (http://www.inkscape.org/) -->

<svg
   xmlns:dc="http://purl.org/dc/elements/1.1/"
   xmlns:cc="http://creativecommons.org/ns#"
   xmlns:rdf="http://www.w3.org/1999/02/22-rdf-syntax-ns#"
   xmlns:svg="http://www.w3.org/2000/svg"
   xmlns="http://www.w3.org/2000/svg"
   xmlns:sodipodi="http://sodipodi.sourceforge.net/DTD/sodipodi-0.dtd"
   xmlns:inkscape="http://www.inkscape.org/namespaces/inkscape"
   width="240mm"
   height="120mm"
   viewBox="0 0 240 120"
   version="1.1"
   id="svg8"
   inkscape:version="0.92.5 (2060ec1f9f, 2020-04-08)"
   sodipodi:docname="ahre-loco.svg">
  <defs
     id="defs2">
    <inkscape:path-effect
       effect="bspline"
       id="path-effect34"
       is_visible="true"
       weight="33.333333"
       steps="2"
       helper_size="0"
       apply_no_weight="true"
       apply_with_weight="true"
       only_selected="false" />
    <inkscape:path-effect
       effect="bspline"
       id="path-effect30"
       is_visible="true"
       weight="33.333333"
       steps="2"
       helper_size="0"
       apply_no_weight="true"
       apply_with_weight="true"
       only_selected="false" />
    <inkscape:path-effect
       effect="bspline"
       id="path-effect26"
       is_visible="true"
       weight="33.333333"
       steps="2"
       helper_size="0"
       apply_no_weight="true"
       apply_with_weight="true"
       only_selected="false" />
    <inkscape:perspective
       sodipodi:type="inkscape:persp3d"
       inkscape:vp_x="0 : 60 : 1"
       inkscape:vp_y="0 : 1000 : 0"
       inkscape:vp_z="240 : 60 : 1"
       inkscape:persp3d-origin="120 : 40 : 1"
       id="perspective8" />
  </defs>
  <sodipodi:namedview
     id="base"
     pagecolor="#ffffff"
     bordercolor="#666666"
     borderopacity="1.0"
     inkscape:pageopacity="0.0"
     inkscape:pageshadow="2"
     inkscape:zoom="0.99437388"
     inkscape:cx="284.27627"
     inkscape:cy="182.72055"
     inkscape:document-units="mm"
     inkscape:current-layer="layer1"
     showgrid="false"
     showborder="true"
     width="200mm"
     showguides="true"
     inkscape:guide-bbox="true"
     inkscape:window-width="518"
     inkscape:window-height="423"
     inkscape:window-x="1317"
     inkscape:window-y="268"
     inkscape:window-maximized="0">
    <inkscape:grid
       type="xygrid"
       id="grid815"
       units="mm"
       spacingx="10"
       spacingy="10"
       empspacing="4"
       dotted="false" />
  </sodipodi:namedview>
  <metadata
     id="metadata5">
    <rdf:RDF>
      <cc:Work
         rdf:about="">
        <dc:format>image/svg+xml</dc:format>
        <dc:type
           rdf:resource="http://purl.org/dc/dcmitype/StillImage" />
        <dc:title />
      </cc:Work>
    </rdf:RDF>
  </metadata>
  <g
     inkscape:label="Layer 1"
     inkscape:groupmode="layer"
     id="layer1"
     transform="translate(0,-177)">
    <g
       sodipodi:type="inkscape:box3d"
       id="g10"
       style="fill:#000000;fill-opacity:0;stroke:#000000;stroke-width:0.53079998;stroke-dasharray:none;stroke-opacity:1;marker-start:none;marker-end:none"
       inkscape:perspectiveID="#perspective8"
       inkscape:corner0="2.1537875 : 0.083071041 : 0 : 1"
       inkscape:corner7="1.5624523 : -0.024891587 : 0.25 : 1">
      <path
         sodipodi:type="inkscape:box3dside"
         id="path12"
         style="fill:#353564;fill-rule:evenodd;stroke:none;stroke-linejoin:round"
         inkscape:box3dsidetype="6"
         d="m 38.049488,217.00149 v 34.23269 l 14.832779,-1.04546 v -31.71838 z"
         points="38.049488,251.23418 52.882267,250.18872 52.882267,218.47034 38.049488,217.00149 " />
      <path
         sodipodi:type="inkscape:box3dside"
         id="path20"
         style="fill:#afafde;fill-rule:evenodd;stroke:none;stroke-linejoin:round"
         inkscape:box3dsidetype="13"
         d="m 38.049488,251.23418 8.780652,3.28481 17.170945,-1.55727 -11.118818,-2.773 z"
         points="46.83014,254.51899 64.001085,252.96172 52.882267,250.18872 38.049488,251.23418 " />
      <path
         sodipodi:type="inkscape:box3dside"
         id="path22"
         style="fill:#e9e9ff;fill-rule:evenodd;stroke:none;stroke-linejoin:round"
         inkscape:box3dsidetype="11"
         d="m 52.882267,218.47034 11.118818,-3.89598 v 38.38736 l -11.118818,-2.773 z"
         points="64.001085,214.57436 64.001085,252.96172 52.882267,250.18872 52.882267,218.47034 " />
      <path
         sodipodi:type="inkscape:box3dside"
         id="path14"
         style="fill:#4d4d9f;fill-rule:evenodd;stroke:none;stroke-linejoin:round"
         inkscape:box3dsidetype="5"
         d="m 38.049488,217.00149 8.780652,-4.61504 17.170945,2.18791 -11.118818,3.89598 z"
         points="46.83014,212.38645 64.001085,214.57436 52.882267,218.47034 38.049488,217.00149 " />
      <path
         sodipodi:type="inkscape:box3dside"
         id="path18"
         style="fill:#d7d7ff;fill-rule:evenodd;stroke:none;stroke-linejoin:round"
         inkscape:box3dsidetype="14"
         d="m 46.83014,212.38645 v 42.13254 l 17.170945,-1.55727 v -38.38736 z"
         points="46.83014,254.51899 64.001085,252.96172 64.001085,214.57436 46.83014,212.38645 " />
      <path
         sodipodi:type="inkscape:box3dside"
         id="path16"
         style="fill:#8686bf;fill-rule:evenodd;stroke:none;stroke-linejoin:round"
         inkscape:box3dsidetype="3"
         d="m 38.049488,217.00149 8.780652,-4.61504 v 42.13254 l -8.780652,-3.28481 z"
         points="46.83014,212.38645 46.83014,254.51899 38.049488,251.23418 38.049488,217.00149 " />
    </g>
    <path
       style="fill:none;stroke:#000000;stroke-width:0.26458332px;stroke-linecap:butt;stroke-linejoin:miter;stroke-opacity:1"
       d="m 47.096219,229.4156 c -0.175797,0.35159 -0.353187,0.70637 -0.485699,0.88535 -0.132513,0.17897 -0.221204,0.17897 -0.266874,0.22197 -0.04567,0.043 -0.04567,0.13174 -0.08922,0.26452 -0.04355,0.13277 -0.132242,0.31015 -0.177383,0.44344 -0.04514,0.13328 -0.04514,0.22202 -0.132238,0.31124 -0.0871,0.0892 -0.264503,0.17792 -0.397809,0.22306 -0.133307,0.0451 -0.221998,0.0451 -0.267668,0.0882 -0.04567,0.043 -0.04567,0.13169 -0.08922,0.26447 -0.04355,0.13277 -0.132244,0.31015 -0.177386,0.44349 -0.04514,0.13333 -0.04514,0.22197 -0.08817,0.26764 -0.04303,0.0457 -0.131714,0.0457 -0.177384,0.0887 -0.04567,0.043 -0.04567,0.13169 -0.133041,0.17736 -0.08737,0.0457 -0.264757,0.0457 -0.354774,0.0887 -0.09002,0.043 -0.09002,0.13169 -0.133041,0.17736 -0.04303,0.0457 -0.131717,0.0457 -0.177387,0.13304 -0.04567,0.0874 -0.04567,0.26476 -0.132786,0.39833 -0.08712,0.13358 -0.264482,0.22226 -0.354762,0.31045 -0.09028,0.0882 -0.09028,0.17683 -0.177651,0.30987 -0.08737,0.13304 -0.264759,0.31043 -0.354775,0.44349 -0.09002,0.13307 -0.09002,0.22171 -0.133041,0.26738 -0.04303,0.0457 -0.131716,0.0457 -0.177386,0.0887 -0.04567,0.043 -0.04567,0.13169 -0.0887,0.17736 -0.04303,0.0457 -0.131716,0.0457 -0.177386,0.13304 -0.04567,0.0874 -0.04567,0.26476 -0.133039,0.35477 -0.08737,0.09 -0.264757,0.09 -0.354774,0.13307 -0.09002,0.043 -0.09002,0.13169 -0.133569,0.26447 -0.04355,0.13277 -0.132248,0.31016 -0.177388,0.44349 -0.04514,0.13333 -0.04514,0.22198 -0.08817,0.26764 -0.04303,0.0457 -0.131716,0.0457 -0.177386,0.0887 -0.04567,0.043 -0.04567,0.1317 -0.133041,0.17737 -0.08737,0.0457 -0.264755,0.0457 -0.354771,0.0887 -0.09002,0.043 -0.09002,0.13173 -0.133042,0.1774 -0.04303,0.0457 -0.131716,0.0457 -0.177386,0.13304 -0.04567,0.0874 -0.04567,0.26476 -0.04567,0.39778 0,0.13302 0,0.22176 -0.04303,0.26743 -0.04303,0.0457 -0.131716,0.0457 -0.177386,0.0887 -0.04567,0.043 -0.04567,0.13174 -0.08869,0.17741 -0.04303,0.0457 -0.131717,0.0457 -0.177387,0.13304 -0.04567,0.0874 -0.04567,0.26475 -0.132766,0.39832 -0.0871,0.13357 -0.2645,0.22227 -0.354781,0.31046 -0.09028,0.0882 -0.09028,0.17683 -0.133306,0.2225 -0.04303,0.0457 -0.131717,0.0457 -0.177387,0.13304 -0.04567,0.0874 -0.04567,0.26475 -0.13304,0.35477 -0.08737,0.09 -0.264758,0.09 -0.354775,0.13307 -0.09002,0.043 -0.09002,0.13169 -0.133041,0.17736 -0.04303,0.0457 -0.131716,0.0457 -0.177384,0.13304 -0.04567,0.0874 -0.04567,0.26476 -0.08869,0.35477 -0.04303,0.09 -0.131717,0.09 -0.177387,0.13307 -0.04567,0.043 -0.04567,0.13169 -0.133039,0.26473 -0.08737,0.13304 -0.26476,0.31043 -0.354776,0.44349 -0.09002,0.13307 -0.09002,0.22171 -0.133041,0.26738 -0.04303,0.0457 -0.131716,0.0457 -0.177386,0.0887 -0.04567,0.043 -0.04567,0.13169 -0.08871,0.2204 -0.04304,0.0887 -0.131703,0.17737 -0.264742,0.31041 -0.13304,0.13304 -0.310429,0.31043 -0.400445,0.44349 -0.09002,0.13307 -0.09002,0.22171 -0.133041,0.26738 -0.04303,0.0457 -0.131716,0.0457 -0.177386,0.0887 -0.04567,0.043 -0.04567,0.13169 -0.0887,0.17736 -0.04303,0.0457 -0.131716,0.0457 -0.177386,0.13304 -0.04567,0.0874 -0.04567,0.26476 -0.04567,0.39782 0,0.13307 0,0.22171 -0.08737,0.26738 -0.08737,0.0457 -0.264755,0.0457 -0.354772,0.13304 -0.09002,0.0874 -0.09002,0.26476 -0.133042,0.35478 -0.04303,0.09 -0.131716,0.09 -0.177386,0.17739 -0.04567,0.0874 -0.04567,0.26475 -0.08869,0.35476 -0.04303,0.09 -0.131717,0.09 -0.177387,0.17739 -0.04567,0.0874 -0.04567,0.26476 -0.132766,0.39833 -0.0871,0.13357 -0.264502,0.22227 -0.354782,0.31041 -0.09028,0.0881 -0.09028,0.17688 -0.133833,0.30966 -0.04355,0.13277 -0.132244,0.31015 -0.177386,0.44344 -0.04514,0.13328 -0.04514,0.22202 -0.08818,0.31073 -0.04304,0.0887 -0.131703,0.17737 -0.177373,0.31041 -0.04567,0.13304 -0.04567,0.31042 -0.08869,0.40044 -0.04303,0.09 -0.131717,0.09 -0.177387,0.17739 -0.04567,0.0874 -0.04567,0.26476 -0.04567,0.39782 0,0.13307 0,0.22171 0,0.35475 0,0.13304 0,0.31043 -0.08737,0.40044 -0.08737,0.09 -0.264758,0.09 -0.354773,0.13307 -0.09001,0.0431 -0.09001,0.13169 -0.09001,0.26473 0,0.13304 0,0.31043 -0.04303,0.40044 -0.04303,0.09 -0.131716,0.09 -0.177386,0.13307 -0.04567,0.043 -0.04567,0.13169 -0.04567,0.30908 0,0.17739 0,0.44347 -0.04304,0.62087 -0.04304,0.17739 -0.131703,0.26606 -0.177373,0.35478 -0.04567,0.0887 -0.04567,0.17736 -0.04567,0.3104 0,0.13304 0,0.31043 0,0.44349 0,0.13307 0,0.22172 -0.04303,0.26738 -0.04303,0.0457 -0.131716,0.0457 -0.177386,0.0887 -0.04567,0.0431 -0.04567,0.1317 -0.04567,0.35343 0,0.22173 0,0.57651 0,0.84259 0,0.26608 0,0.44346 0,0.57648 0,0.13302 0,0.22176 0.04567,0.26743 0.04567,0.0457 0.134363,0.0457 0.177387,0.0887 0.04302,0.043 0.04302,0.13174 0.08869,0.17741 0.04567,0.0457 0.134363,0.0457 0.177387,0.0887 0.04302,0.043 0.04302,0.13174 0.08869,0.17741 0.04567,0.0457 0.134363,0.0457 0.177387,0.0887 0.04302,0.0431 0.04302,0.13169 0.133039,0.17736 0.09002,0.0457 0.267403,0.0457 0.354773,0.13304 0.08737,0.0874 0.08737,0.26475 0.133041,0.35477 0.04567,0.09 0.134363,0.09 0.221747,0.13438 0.08738,0.0444 0.176051,0.13303 0.266068,0.17737 0.09002,0.0444 0.17871,0.0444 0.221734,0.0874 0.04302,0.043 0.04302,0.13169 0.08869,0.17736 0.04567,0.0457 0.13436,0.0457 0.177384,0.0887 0.04302,0.043 0.04302,0.13169 0.08869,0.17736 0.04567,0.0457 0.134363,0.0457 0.221747,0.09 0.08738,0.0444 0.176051,0.13303 0.266068,0.17737 0.09002,0.0444 0.17871,0.0444 0.221733,0.0874 0.04302,0.043 0.04302,0.13169 0.08869,0.17736 0.04567,0.0457 0.134364,0.0457 0.177387,0.0887 0.04302,0.043 0.04302,0.13169 0.133039,0.17736 0.09002,0.0457 0.267403,0.0457 0.398856,0.13383 0.131452,0.0882 0.220147,0.26556 0.310428,0.35478 0.09028,0.0892 0.178974,0.0892 0.221998,0.13227 0.04302,0.043 0.04302,0.13169 0.08869,0.17736 0.04567,0.0457 0.134363,0.0457 0.221747,0.09 0.08738,0.0444 0.176049,0.13303 0.266065,0.17737 0.09002,0.0444 0.17871,0.0444 0.310967,0.089 0.132258,0.0446 0.309624,0.1333 0.443459,0.17738 0.133834,0.0441 0.222527,0.0441 0.265551,0.13145 0.04302,0.0874 0.04302,0.26476 0.133039,0.35477 0.09002,0.09 0.267402,0.09 0.354773,0.13307 0.08737,0.043 0.08737,0.13169 0.177387,0.17736 0.09002,0.0457 0.267404,0.0457 0.400445,0.0457 0.133041,0 0.221734,0 0.264756,0.043 0.04302,0.043 0.04302,0.13169 0.133039,0.17736 0.09002,0.0457 0.267404,0.0457 0.400445,0.0457 0.133041,0 0.221734,0 0.354774,0 0.133041,0 0.310428,0 0.397797,0.0874 0.08737,0.0874 0.08737,0.26476 0.13304,0.35477 0.04567,0.09 0.134363,0.09 0.267403,0.09 0.133041,0 0.310428,0 0.443468,0 0.133041,0 0.221734,0 0.264758,0.043 0.04302,0.0431 0.04302,0.13169 0.08869,0.17736 0.04567,0.0457 0.134363,0.0457 0.311749,0.0457 0.177386,0 0.443467,0 0.620854,0 0.177388,0 0.266081,0 0.353187,0.0882 0.08711,0.0882 0.175799,0.26556 0.266079,0.35478 0.09028,0.0892 0.178974,0.0892 0.312014,0.0892 0.133041,0 0.310428,0 0.487815,0 0.177388,0 0.354775,0 0.486504,0.0444 0.131728,0.0444 0.220398,0.13303 0.310415,0.17738 0.09002,0.0444 0.178709,0.0444 0.267402,0.0444 0.08869,0 0.177388,0 0.399122,0 0.221734,0 0.576505,0 0.798239,0 0.221735,0 0.310428,0 0.397787,0.0443 0.08736,0.0443 0.176076,0.13306 0.266093,0.1774 0.09002,0.0444 0.178707,0.0444 0.356094,0.0444 0.177388,0 0.443469,0 0.709549,0 0.266081,0 0.53216,0 0.709547,0 0.177388,0 0.266081,0 0.354775,0 0.08869,0 0.177387,0 0.266071,-0.0457 0.08868,-0.0457 0.1774,-0.13438 0.266092,-0.1774 0.08869,-0.043 0.177383,-0.043 0.266066,-0.0887 0.08868,-0.0457 0.177398,-0.13438 0.263445,-0.22043"
       id="path24"
       inkscape:connector-curvature="0"
       inkscape:path-effect="#path-effect26"
       inkscape:original-d="m 47.096219,229.4156 c -0.174741,0.35212 -0.352129,0.7069 -0.532162,1.06432 -0.08605,-0.003 -0.174741,-0.003 -0.266081,0 0.0026,0.086 0.0026,0.17474 0,0.26608 -0.08605,0.17474 -0.174738,0.35212 -0.266078,0.53216 0.0026,0.086 0.0026,0.17474 0,0.26608 -0.174741,0.086 -0.352128,0.17474 -0.532162,0.26608 -0.08605,-0.003 -0.174741,-0.003 -0.26608,0 0.0026,0.0861 0.0026,0.17474 0,0.26608 -0.08605,0.17474 -0.174742,0.35212 -0.266081,0.53216 0.0026,0.0861 0.0026,0.17474 0,0.26608 -0.08605,-0.003 -0.174739,-0.003 -0.266079,0 0.0026,0.0861 0.0026,0.17474 0,0.26608 -0.174741,-0.003 -0.352128,-0.003 -0.532161,0 0.0026,0.0861 0.0026,0.17474 0,0.26608 -0.08605,-0.003 -0.174742,-0.003 -0.266081,0 0.0026,0.17474 0.0026,0.35213 0,0.53216 -0.174742,0.0861 -0.352129,0.17474 -0.532159,0.26608 0.0026,0.0861 0.0026,0.17474 0,0.26608 -0.174742,0.17474 -0.352129,0.35213 -0.532162,0.53216 0.0026,0.0861 0.0026,0.17474 0,0.26608 -0.08605,-0.003 -0.174741,-0.003 -0.266081,0 0.0026,0.0861 0.0026,0.17474 0,0.26608 -0.08605,-0.003 -0.174741,-0.003 -0.266081,0 0.0026,0.17474 0.0026,0.35213 0,0.53216 -0.174738,-0.003 -0.352126,-0.003 -0.532159,0 0.0026,0.0861 0.0026,0.17474 0,0.26608 -0.08605,0.17474 -0.174741,0.35213 -0.266081,0.53216 0.0026,0.0861 0.0026,0.17475 0,0.26608 -0.08605,-0.003 -0.174741,-0.003 -0.266081,0 0.0026,0.0861 0.0026,0.17475 0,0.26609 -0.174741,-0.003 -0.352126,-0.003 -0.532159,0 0.0026,0.086 0.0026,0.17473 0,0.26607 -0.08605,-0.003 -0.174741,-0.003 -0.266081,0 0.0026,0.17475 0.0026,0.35213 0,0.53217 0.0026,0.086 0.0026,0.17474 0,0.26608 -0.08605,-0.003 -0.174741,-0.003 -0.26608,0 0.0026,0.086 0.0026,0.17474 0,0.26608 -0.08605,-0.003 -0.174742,-0.003 -0.266081,0 0.0026,0.17474 0.0026,0.35212 0,0.53216 -0.174742,0.086 -0.352126,0.17474 -0.532159,0.26608 0.0026,0.0861 0.0026,0.17474 0,0.26608 -0.08605,-0.003 -0.174742,-0.003 -0.266081,0 0.0026,0.17474 0.0026,0.35212 0,0.53216 -0.174742,-0.003 -0.352129,-0.003 -0.532162,0 0.0026,0.0861 0.0026,0.17474 0,0.26608 -0.08605,-0.003 -0.174741,-0.003 -0.266078,0 0.0026,0.17474 0.0026,0.35213 0,0.53216 -0.08605,-0.003 -0.174742,-0.003 -0.266081,0 0.0026,0.0861 0.0026,0.17474 0,0.26608 -0.174741,0.17474 -0.352129,0.35213 -0.532162,0.53216 0.0026,0.0861 0.0026,0.17474 0,0.26608 -0.08605,-0.003 -0.174741,-0.003 -0.266081,0 0.0026,0.0861 0.0026,0.17474 0,0.26608 -0.08605,0.0861 -0.174741,0.17474 -0.266078,0.26608 -0.174741,0.17474 -0.352129,0.35213 -0.532162,0.53216 0.0026,0.0861 0.0026,0.17474 0,0.26608 -0.08605,-0.003 -0.174741,-0.003 -0.266081,0 0.0026,0.0861 0.0026,0.17474 0,0.26608 -0.08605,-0.003 -0.174741,-0.003 -0.26608,0 0.0026,0.17474 0.0026,0.35213 0,0.53216 0.0026,0.0861 0.0026,0.17474 0,0.26608 -0.174742,-0.003 -0.352126,-0.003 -0.53216,0 0.0026,0.17474 0.0026,0.35213 0,0.53217 -0.08605,-0.003 -0.174741,-0.003 -0.26608,0 0.0026,0.17474 0.0026,0.35212 0,0.53215 -0.08605,-0.003 -0.174742,-0.003 -0.266081,0 0.0026,0.17475 0.0026,0.35213 0,0.53217 -0.174742,0.086 -0.352129,0.17474 -0.532159,0.26608 0.0026,0.086 0.0026,0.17474 0,0.26608 -0.08605,0.17474 -0.174742,0.35212 -0.266081,0.53216 0.0026,0.086 0.0026,0.17474 0,0.26608 -0.08605,0.0861 -0.174742,0.17474 -0.266081,0.26608 0.0026,0.17474 0.0026,0.35212 0,0.53216 -0.08605,-0.003 -0.174742,-0.003 -0.266081,0 0.0026,0.17474 0.0026,0.35213 0,0.53216 0.0026,0.0861 0.0026,0.17474 0,0.26608 0.0026,0.17474 0.0026,0.35213 0,0.53216 -0.174741,-0.003 -0.352129,-0.003 -0.532159,0 0.0026,0.0861 0.0026,0.17474 0,0.26608 0.0026,0.17474 0.0026,0.35213 0,0.53216 -0.08605,-0.003 -0.174741,-0.003 -0.266081,0 0.0026,0.0861 0.0026,0.17474 0,0.26608 0.0026,0.26344 0.0026,0.52952 0,0.79824 -0.08605,0.0861 -0.174741,0.17474 -0.266081,0.26608 0.0026,0.0861 0.0026,0.17474 0,0.26608 0.0026,0.17474 0.0026,0.35213 0,0.53216 0.0026,0.0861 0.0026,0.17475 0,0.26608 -0.08605,-0.003 -0.174741,-0.003 -0.266081,0 0.0026,0.0861 0.0026,0.17475 0,0.26608 0.0026,0.35213 0.0026,0.70691 0,1.06433 0.0026,0.17474 0.0026,0.35212 0,0.53216 0.0026,0.086 0.0026,0.17474 0,0.26608 0.09134,-0.003 0.180033,-0.003 0.266081,0 0.0026,0.086 0.0026,0.17474 0,0.26608 0.09134,-0.003 0.180033,-0.003 0.266081,0 0.0026,0.086 0.0026,0.17474 0,0.26608 0.09134,-0.003 0.180033,-0.003 0.266081,0 0.0026,0.0861 0.0026,0.17474 0,0.26608 0.18003,-0.003 0.357418,-0.003 0.532159,0 0.0026,0.17474 0.0026,0.35212 0,0.53216 0.09134,-0.003 0.180033,-0.003 0.266081,0 0.09134,0.0861 0.180033,0.17474 0.266081,0.26608 0.09134,-0.003 0.180033,-0.003 0.266081,0 0.0026,0.0861 0.0026,0.17474 0,0.26608 0.09134,-0.003 0.18003,-0.003 0.266078,0 0.0026,0.0861 0.0026,0.17474 0,0.26608 0.09134,-0.003 0.180033,-0.003 0.266081,0 0.09134,0.0861 0.180033,0.17474 0.266081,0.26608 0.09134,-0.003 0.180033,-0.003 0.26608,0 0.0026,0.0861 0.0026,0.17474 0,0.26608 0.09134,-0.003 0.180034,-0.003 0.266081,0 0.0026,0.0861 0.0026,0.17474 0,0.26608 0.180031,-0.003 0.357418,-0.003 0.532159,0 0.09134,0.17474 0.180034,0.35213 0.266081,0.53216 0.09134,-0.003 0.180033,-0.003 0.266081,0 0.0026,0.0861 0.0026,0.17474 0,0.26608 0.09134,-0.003 0.180033,-0.003 0.266081,0 0.09134,0.0861 0.180031,0.17474 0.266078,0.26608 0.09134,-0.003 0.180033,-0.003 0.266081,0 0.180033,0.0861 0.357421,0.17474 0.532162,0.26608 0.09134,-0.003 0.180033,-0.003 0.266081,0 0.0026,0.17474 0.0026,0.35213 0,0.53216 0.18003,-0.003 0.357417,-0.003 0.532159,0 0.0026,0.0861 0.0026,0.17474 0,0.26608 0.180033,-0.003 0.35742,-0.003 0.532162,0 0.09134,-0.003 0.180033,-0.003 0.266078,0 0.0026,0.0861 0.0026,0.17474 0,0.26608 0.180033,-0.003 0.35742,-0.003 0.532162,0 0.09134,-0.003 0.180033,-0.003 0.26608,0 0.180034,-0.003 0.357421,-0.003 0.53216,0 0.0026,0.17474 0.0026,0.35213 0,0.53216 0.09134,-0.003 0.180033,-0.003 0.26608,0 0.180034,-0.003 0.357421,-0.003 0.532162,0 0.09134,-0.003 0.180033,-0.003 0.266081,0 0.0026,0.0861 0.0026,0.17474 0,0.26608 0.09134,-0.003 0.180033,-0.003 0.266078,0 0.268727,-0.003 0.534808,-0.003 0.798243,0 0.09134,-0.003 0.180033,-0.003 0.266081,0 0.09134,0.17474 0.18003,0.35213 0.266078,0.53216 0.09134,-0.003 0.180033,-0.003 0.266081,0 0.180033,-0.003 0.35742,-0.003 0.532162,0 0.180033,-0.003 0.35742,-0.003 0.532159,0 0.09134,0.0861 0.180033,0.17475 0.266081,0.26609 0.09134,-0.003 0.180033,-0.003 0.26608,0 0.09134,-0.003 0.180034,-0.003 0.266081,0 0.357421,-0.003 0.712192,-0.003 1.064321,0 0.09134,-0.003 0.180033,-0.003 0.266081,0 0.09134,0.086 0.180033,0.17474 0.266081,0.26608 0.09134,-0.003 0.18003,-0.003 0.266078,0 0.268727,-0.003 0.534808,-0.003 0.798243,0 0.268726,-0.003 0.534805,-0.003 0.79824,0 0.09134,-0.003 0.180033,-0.003 0.266081,0 0.09134,-0.003 0.180033,-0.003 0.26608,0 0.09134,-0.0913 0.180034,-0.18004 0.266081,-0.26608 0.09134,-0.003 0.180031,-0.003 0.266079,0 0.09134,-0.0913 0.180033,-0.18004 0.26608,-0.26609" />
    <path
       style="fill:none;stroke:#000000;stroke-width:0.26458332px;stroke-linecap:butt;stroke-linejoin:miter;stroke-opacity:1"
       d="m 77.163297,232.0764 c 0.446511,-0.0893 0.889986,-0.178 1.155863,-0.22204 0.265878,-0.044 0.354569,-0.044 0.397593,-0.13406 0.04302,-0.09 0.04302,-0.2674 0.133041,-0.35477 0.09002,-0.0874 0.267403,-0.0874 0.577831,-0.0874 0.310427,0 0.753893,0 2.261682,0 1.507789,0 4.079899,0 5.80942,0 1.729522,0 2.616458,0 3.148618,0 0.532161,0 0.709548,0 0.842589,0 0.133041,0 0.221731,0 0.353448,0.0887 0.131718,0.0887 0.309102,0.26608 0.487814,0.35477 0.178712,0.0887 0.356099,0.0887 0.622178,0.0887 0.26608,0 0.620855,0 1.108669,0 0.487813,0 1.108668,0 1.463442,0 0.354773,0 0.443466,0 0.576506,0 0.133041,0 0.310428,0 0.486492,0.0887 0.176064,0.0887 0.353451,0.26608 0.532161,0.35478 0.178709,0.0887 0.356096,0.0887 0.622177,0.0887 0.266081,0 0.620853,0 0.886934,0 0.26608,0 0.443468,0 0.619531,0.0887 0.176063,0.0887 0.353452,0.26608 0.532161,0.35478 0.178709,0.0887 0.356093,0.0887 0.710873,0.0887 0.35477,0 0.88693,0 1.24171,0 0.35477,0 0.53216,0 0.70822,0.0887 0.17607,0.0887 0.35346,0.26609 0.53216,0.35478 0.17871,0.0887 0.3561,0.0887 0.48912,0.0887 0.13302,0 0.22175,0 0.35479,0 0.13304,0 0.31043,0 0.44345,0 0.13302,0 0.22175,0 0.35401,0.0446 0.13225,0.0446 0.30962,0.1333 0.4878,0.17738 0.17818,0.0441 0.35557,0.0441 0.57731,0.0441 0.22173,0 0.48781,0 0.70954,0 0.22173,0 0.39912,0 0.57519,0.0887 0.17606,0.0887 0.35345,0.26607 0.48779,0.35477 0.13434,0.0887 0.22308,0.0887 0.35612,0.0887 0.13304,0 0.31042,0 0.44345,0 0.13302,0 0.22175,0 0.26477,0.0874 0.043,0.0874 0.043,0.26476 0.13304,0.35478 0.09,0.09 0.2674,0.09 0.44479,0.09 0.17739,0 0.35478,0 0.4878,0 0.13302,0 0.22175,0 0.35347,0.0887 0.13172,0.0887 0.30911,0.26609 0.44345,0.35478 0.13434,0.0887 0.22307,0.0887 0.31175,0.0887 0.0887,0 0.1774,0 0.31044,0 0.13304,0 0.31043,0 0.3978,0.043 0.0874,0.043 0.0874,0.13169 0.13302,0.17736 0.0456,0.0457 0.13438,0.0457 0.26742,0.0457 0.13304,0 0.31043,0 0.3978,0.0874 0.0874,0.0874 0.0874,0.26476 0.17739,0.35478 0.09,0.09 0.2674,0.09 0.35477,0.13306 0.0874,0.043 0.0874,0.13169 0.17739,0.17736 0.09,0.0457 0.2674,0.0457 0.35477,0.0887 0.0874,0.043 0.0874,0.13169 0.13302,0.17736 0.0456,0.0457 0.13438,0.0457 0.17741,0.0887 0.043,0.043 0.043,0.13169 0.0887,0.17736 0.0456,0.0457 0.13438,0.0457 0.17741,0.0887 0.043,0.043 0.043,0.1317 0.043,0.26474 0,0.13304 0,0.31042 0,0.62085 0,0.31043 0,0.75389 0,1.01995 0,0.26606 0,0.3548 0,0.44347 0,0.0887 0,0.17741 -0.0438,0.35454 -0.0438,0.17713 -0.13251,0.44319 -0.17738,0.62087 -0.0449,0.17768 -0.0449,0.26632 -0.0449,0.35504 0,0.0887 0,0.17736 -0.0874,0.22303 -0.0874,0.0457 -0.26476,0.0457 -0.35477,0.0887 -0.09,0.043 -0.09,0.13169 -0.09,0.26473 0,0.13304 0,0.31043 -0.0431,0.44349 -0.043,0.13307 -0.13169,0.22171 -0.17736,0.35475 -0.0457,0.13304 -0.0457,0.31043 -0.0887,0.44349 -0.043,0.13307 -0.13169,0.22171 -0.17736,0.35475 -0.0457,0.13304 -0.0457,0.31043 -0.0457,0.44349 0,0.13307 0,0.22171 -0.0874,0.26738 -0.0874,0.0457 -0.26476,0.0457 -0.35477,0.0887 -0.09,0.043 -0.09,0.13169 -0.09,0.26473 0,0.13304 0,0.31043 -0.043,0.40044 -0.0431,0.09 -0.13169,0.09 -0.17736,0.17739 -0.0457,0.0874 -0.0457,0.26476 -0.0887,0.35477 -0.043,0.09 -0.13169,0.09 -0.17736,0.17739 -0.0457,0.0874 -0.0457,0.26476 -0.0457,0.39782 0,0.13307 0,0.22171 -0.0874,0.26738 -0.0874,0.0457 -0.26476,0.0457 -0.35477,0.13304 -0.09,0.0874 -0.09,0.26476 -0.13304,0.3978 -0.043,0.13305 -0.13172,0.22174 -0.22121,0.39887 -0.0895,0.17713 -0.17818,0.44319 -0.22305,0.62082 -0.0449,0.17763 -0.0449,0.26637 -0.13225,0.31204 -0.0874,0.0457 -0.26476,0.0457 -0.35477,0.13304 -0.09,0.0874 -0.09,0.26476 -0.09,0.39777 0,0.13302 0,0.22176 -0.0874,0.26743 -0.0874,0.0457 -0.26476,0.0457 -0.35477,0.13304 -0.09,0.0874 -0.09,0.26476 -0.09,0.39782 0,0.13307 0,0.22171 -0.0436,0.3545 -0.0436,0.13278 -0.13224,0.31015 -0.17738,0.4878 -0.0451,0.17765 -0.0451,0.35504 -0.13251,0.44505 -0.0874,0.09 -0.26476,0.09 -0.35478,0.17739 -0.09,0.0874 -0.09,0.26476 -0.13304,0.3978 -0.043,0.13304 -0.13172,0.22173 -0.17738,0.31045 -0.0457,0.0887 -0.0457,0.17736 -0.13304,0.22303 -0.0874,0.0457 -0.26476,0.0457 -0.35478,0.13304 -0.09,0.0874 -0.09,0.26476 -0.09,0.44214 0,0.17739 0,0.35478 -0.043,0.44479 -0.043,0.09 -0.13174,0.09 -0.17741,0.13307 -0.0457,0.043 -0.0457,0.13169 -0.13304,0.26473 -0.0874,0.13304 -0.26475,0.31042 -0.35477,0.44349 -0.09,0.13307 -0.09,0.22171 -0.13302,0.26738 -0.043,0.0457 -0.13174,0.0457 -0.17741,0.13304 -0.0457,0.0874 -0.0457,0.26476 -0.0457,0.39778 0,0.13302 0,0.22176 -0.0874,0.26743 -0.0874,0.0457 -0.26476,0.0457 -0.35477,0.13304 -0.09,0.0874 -0.09,0.26475 -0.13304,0.39779 -0.043,0.13305 -0.13172,0.22174 -0.17739,0.35478 -0.0457,0.13304 -0.0457,0.31042 -0.13304,0.40044 -0.0874,0.09 -0.26476,0.09 -0.35477,0.13307 -0.09,0.0431 -0.09,0.13169 -0.13358,0.26448 -0.0436,0.13278 -0.13224,0.31014 -0.17738,0.44348 -0.0451,0.13333 -0.0451,0.22197 -0.13251,0.35501 -0.0874,0.13304 -0.26476,0.31043 -0.35477,0.48781 -0.09,0.17739 -0.09,0.35478 -0.13307,0.44479 -0.0431,0.09 -0.13169,0.09 -0.17736,0.17739 -0.0457,0.0874 -0.0457,0.26476 -0.0457,0.39782 0,0.13307 0,0.22171 -0.043,0.31043 -0.0431,0.0887 -0.13169,0.17736 -0.17736,0.3104 -0.0457,0.13304 -0.0457,0.31043 -0.0457,0.44349 0,0.13307 0,0.22171 -0.0874,0.35475 -0.0874,0.13304 -0.26476,0.31043 -0.35477,0.44349 -0.09,0.13307 -0.09,0.22171 -0.09,0.44344 0,0.22174 0,0.57651 0,0.97563 0,0.39913 0,0.84259 0,1.10865 0,0.26606 0,0.3548 0,0.44347 0,0.0887 0,0.17741 0.0441,0.31124 0.0441,0.13382 0.13277,0.31122 0.22304,0.40044 0.0903,0.0892 0.17899,0.0892 0.22202,0.13223 0.043,0.043 0.043,0.13174 0.13304,0.17741 0.09,0.0457 0.2674,0.0457 0.35477,0.0887 0.0874,0.043 0.0874,0.13169 0.17739,0.17736 0.09,0.0457 0.2674,0.0457 0.35477,0.0887 0.0874,0.043 0.0874,0.13169 0.17739,0.17736 0.09,0.0457 0.2674,0.0457 0.35477,0.13304 0.0874,0.0874 0.0874,0.26476 0.17739,0.35477 0.09,0.09 0.2674,0.09 0.40042,0.09 0.13302,0 0.22175,0 0.26478,0.043 0.043,0.043 0.043,0.13169 0.0887,0.17736 0.0457,0.0457 0.13438,0.0457 0.26743,0.0457 0.13304,0 0.31042,0 0.44214,0.0444 0.13172,0.0444 0.22041,0.13303 0.35477,0.17738 0.13437,0.0444 0.31175,0.0444 0.39912,0.0874 0.0874,0.043 0.0874,0.13169 0.17739,0.17736 0.09,0.0457 0.2674,0.0457 0.40042,0.0457 0.13302,0 0.22176,0 0.31043,0 0.0887,0 0.17741,0 0.22044,0.0874 0.043,0.0874 0.043,0.26476 0.13304,0.35477 0.09,0.09 0.2674,0.09 0.40042,0.09 0.13302,0 0.22175,0 0.31043,0 0.0887,0 0.1774,0 0.22043,0.043 0.043,0.043 0.043,0.13169 0.13304,0.17736 0.09,0.0457 0.2674,0.0457 0.40042,0.0457 0.13302,0 0.22175,0 0.31043,0 0.0887,0 0.1774,0 0.22043,0.043 0.043,0.0431 0.043,0.13169 0.13304,0.17736 0.09,0.0457 0.2674,0.0457 0.44479,0.0457 0.17738,0 0.35477,0 0.48779,0 0.13302,0 0.22175,0 0.39862,0.0446 0.17687,0.0446 0.44293,0.13331 0.62083,0.17739 0.17789,0.0441 0.26662,0.0441 0.3553,0.0441 0.0887,0 0.1774,0 0.22043,0.0874 0.043,0.0874 0.043,0.26476 0.13304,0.35477 0.09,0.09 0.2674,0.09 0.48914,0.09 0.22173,0 0.48781,0 0.75337,0.0446 0.26556,0.0446 0.53162,0.13331 0.70952,0.17739 0.17789,0.0441 0.26663,0.0441 0.35531,0.0441 0.0887,0 0.1774,0 0.35479,0 0.17738,0 0.44346,0 1.06432,0 0.62085,0 1.59648,0 2.26168,0 0.6652,0 1.01997,0 1.24169,0 0.22171,0 0.31044,0 0.35347,-0.0456 0.043,-0.0457 0.043,-0.13438 0.0887,-0.17741 0.0456,-0.043 0.13438,-0.043 0.22306,-0.0887 0.0887,-0.0457 0.1774,-0.13438 0.26608,-0.22306 0.0887,-0.0887 0.1774,-0.1774 0.22043,-0.26608 0.043,-0.0887 0.043,-0.1774 0.0887,-0.22043 0.0456,-0.043 0.13439,-0.043 0.17741,-0.0887 0.043,-0.0457 0.043,-0.13438 0.13304,-0.17741 0.09,-0.043 0.2674,-0.043 0.35477,-0.13304 0.0874,-0.09 0.0874,-0.2674 0.13302,-0.35477 0.0456,-0.0874 0.13439,-0.0874 0.17741,-0.13302 0.043,-0.0456 0.043,-0.13438 0.0887,-0.17741 0.0457,-0.043 0.13439,-0.043 0.17741,-0.0887 0.043,-0.0456 0.043,-0.13438 0.0887,-0.17741 0.0457,-0.043 0.13439,-0.043 0.17741,-0.0887 0.043,-0.0457 0.043,-0.13438 0.0887,-0.17741 0.0456,-0.043 0.13439,-0.043 0.17741,-0.13304 0.043,-0.09 0.043,-0.2674 0.0887,-0.35477 0.0456,-0.0874 0.13439,-0.0874 0.17741,-0.13302 0.043,-0.0456 0.043,-0.13438 0.0882,-0.26768 0.0451,-0.13329 0.13384,-0.3107 0.22094,-0.48491"
       id="path28"
       inkscape:connector-curvature="0"
       inkscape:path-effect="#path-effect30"
       inkscape:original-d="m 77.163297,232.0764 c 0.446111,-0.0913 0.889579,-0.18003 1.330401,-0.26608 0.09134,-0.003 0.180031,-0.003 0.266079,0 0.0026,-0.18004 0.0026,-0.35742 0,-0.53216 0.180033,-0.003 0.35742,-0.003 0.532161,0 0.446114,-0.003 0.88958,-0.003 1.330402,0 2.574756,-0.003 5.146866,-0.003 7.716329,0 0.88958,-0.003 1.776516,-0.003 2.660804,0 0.180033,-0.003 0.35742,-0.003 0.532162,0 0.09134,-0.003 0.18003,-0.003 0.266078,0 0.180033,0.17474 0.35742,0.35212 0.532162,0.53216 0.180033,-0.003 0.35742,-0.003 0.532161,0 0.357418,-0.003 0.712193,-0.003 1.064321,0 0.623499,-0.003 1.244354,-0.003 1.862561,0 0.09134,-0.003 0.180033,-0.003 0.266081,0 0.180033,-0.003 0.35742,-0.003 0.532162,0 0.180033,0.17474 0.357417,0.35213 0.532159,0.53216 0.180033,-0.003 0.35742,-0.003 0.532161,0 0.357421,-0.003 0.712193,-0.003 1.064321,0 0.180033,-0.003 0.357421,-0.003 0.532162,0 0.18003,0.17474 0.357418,0.35213 0.532159,0.53216 0.180033,-0.003 0.357417,-0.003 0.532157,0 0.53481,-0.003 1.06697,-0.003 1.59649,0 0.18003,-0.003 0.35742,-0.003 0.53216,0 0.18003,0.17474 0.35742,0.35213 0.53216,0.53216 0.18003,-0.003 0.35742,-0.003 0.53216,0 0.0913,-0.003 0.18003,-0.003 0.26608,0 0.18003,-0.003 0.35742,-0.003 0.53216,0 0.0913,-0.003 0.18003,-0.003 0.26608,0 0.18003,0.0861 0.35742,0.17474 0.53216,0.26608 0.18003,-0.003 0.35742,-0.003 0.53216,0 0.26873,-0.003 0.53481,-0.003 0.79824,0 0.18003,-0.003 0.35742,-0.003 0.53216,0 0.18004,0.17474 0.35742,0.35213 0.53216,0.53216 0.0913,-0.003 0.18004,-0.003 0.26608,0 0.18004,-0.003 0.35742,-0.003 0.53217,0 0.0913,-0.003 0.18003,-0.003 0.26607,0 0.003,0.17474 0.003,0.35213 0,0.53216 0.18004,-0.003 0.35742,-0.003 0.53217,0 0.18003,-0.003 0.35742,-0.003 0.53216,0 0.0913,-0.003 0.18003,-0.003 0.26608,0 0.18003,0.17474 0.35742,0.35213 0.53216,0.53216 0.0913,-0.003 0.18003,-0.003 0.26608,0 0.0913,-0.003 0.18003,-0.003 0.26608,0 0.18003,-0.003 0.35742,-0.003 0.53216,0 0.003,0.0861 0.003,0.17474 0,0.26608 0.0913,-0.003 0.18003,-0.003 0.26608,0 0.18003,-0.003 0.35742,-0.003 0.53216,0 0.003,0.17474 0.003,0.35213 0,0.53216 0.18003,-0.003 0.35742,-0.003 0.53216,0 0.003,0.0861 0.003,0.17474 0,0.26608 0.18003,-0.003 0.35742,-0.003 0.53216,0 0.003,0.0861 0.003,0.17474 0,0.26608 0.0913,-0.003 0.18003,-0.003 0.26608,0 0.003,0.0861 0.003,0.17474 0,0.26608 0.0913,-0.003 0.18003,-0.003 0.26608,0 0.003,0.0861 0.003,0.17475 0,0.26608 0.003,0.17475 0.003,0.35213 0,0.53216 0.003,0.44083 0.003,0.88429 0,1.33041 0.003,0.086 0.003,0.17474 0,0.26608 0.003,0.086 0.003,0.17474 0,0.26608 -0.0861,0.26343 -0.17474,0.52951 -0.26608,0.79824 0.003,0.0861 0.003,0.17474 0,0.26608 0.003,0.0861 0.003,0.17474 0,0.26608 -0.17474,-0.003 -0.35213,-0.003 -0.53216,0 0.003,0.0861 0.003,0.17474 0,0.26608 0.003,0.17474 0.003,0.35213 0,0.53216 -0.0861,0.0861 -0.17474,0.17474 -0.26608,0.26608 0.003,0.17474 0.003,0.35213 0,0.53216 -0.0861,0.0861 -0.17474,0.17474 -0.26608,0.26608 0.003,0.17474 0.003,0.35213 0,0.53216 0.003,0.0861 0.003,0.17474 0,0.26608 -0.17474,-0.003 -0.35213,-0.003 -0.53216,0 0.003,0.0861 0.003,0.17474 0,0.26608 0.003,0.17474 0.003,0.35213 0,0.53216 -0.0861,-0.003 -0.17474,-0.003 -0.26608,0 0.003,0.17474 0.003,0.35213 0,0.53216 -0.0861,-0.003 -0.17474,-0.003 -0.26608,0 0.003,0.17475 0.003,0.35213 0,0.53216 0.003,0.0861 0.003,0.17474 0,0.26608 -0.17474,-0.003 -0.35213,-0.003 -0.53216,0 0.003,0.17475 0.003,0.35213 0,0.53217 -0.0861,0.086 -0.17474,0.17474 -0.26608,0.26608 -0.0861,0.26343 -0.17474,0.52951 -0.26608,0.79824 0.003,0.086 0.003,0.17474 0,0.26608 -0.17474,-0.003 -0.35213,-0.003 -0.53216,0 0.003,0.17474 0.003,0.35213 0,0.53216 0.003,0.086 0.003,0.17474 0,0.26608 -0.17474,-0.003 -0.35213,-0.003 -0.53216,0 0.003,0.17474 0.003,0.35213 0,0.53216 0.003,0.0861 0.003,0.17474 0,0.26608 -0.0861,0.17474 -0.17475,0.35213 -0.26608,0.53216 0.003,0.17474 0.003,0.35213 0,0.53216 -0.17475,-0.003 -0.35213,-0.003 -0.53217,0 0.003,0.17474 0.003,0.35213 0,0.53216 -0.086,0.0861 -0.17474,0.17474 -0.26607,0.26608 0.003,0.0861 0.003,0.17474 0,0.26608 -0.17475,-0.003 -0.35213,-0.003 -0.53217,0 0.003,0.17474 0.003,0.35213 0,0.53216 0.003,0.17474 0.003,0.35213 0,0.53216 -0.086,-0.003 -0.17474,-0.003 -0.26608,0 0.003,0.0861 0.003,0.17474 0,0.26608 -0.17474,0.17475 -0.35212,0.35213 -0.53216,0.53216 0.003,0.0861 0.003,0.17474 0,0.26608 -0.086,-0.003 -0.17474,-0.003 -0.26608,0 0.003,0.17475 0.003,0.35213 0,0.53217 0.003,0.086 0.003,0.17474 0,0.26608 -0.17474,-0.003 -0.35213,-0.003 -0.53216,0 0.003,0.17474 0.003,0.35212 0,0.53216 -0.0861,0.086 -0.17474,0.17474 -0.26608,0.26608 0.003,0.17474 0.003,0.35212 0,0.53216 -0.17474,-0.003 -0.35213,-0.003 -0.53216,0 0.003,0.0861 0.003,0.17474 0,0.26608 -0.0861,0.17474 -0.17474,0.35212 -0.26608,0.53216 0.003,0.0861 0.003,0.17474 0,0.26608 -0.17474,0.17474 -0.35213,0.35213 -0.53216,0.53216 0.003,0.17474 0.003,0.35213 0,0.53216 -0.0861,-0.003 -0.17474,-0.003 -0.26608,0 0.003,0.17474 0.003,0.35213 0,0.53216 0.003,0.0861 0.003,0.17474 0,0.26608 -0.0861,0.0861 -0.17474,0.17474 -0.26608,0.26608 0.003,0.17474 0.003,0.35213 0,0.53216 0.003,0.0861 0.003,0.17474 0,0.26608 -0.17474,0.17474 -0.35213,0.35213 -0.53216,0.53216 0.003,0.0861 0.003,0.17474 0,0.26608 0.003,0.35213 0.003,0.7069 0,1.06432 0.003,0.44083 0.003,0.88429 0,1.33041 0.003,0.086 0.003,0.17474 0,0.26608 0.003,0.086 0.003,0.17474 0,0.26608 0.0913,0.17474 0.18003,0.35212 0.26608,0.53216 0.0913,-0.003 0.18003,-0.003 0.26608,0 0.003,0.086 0.003,0.17474 0,0.26608 0.18003,-0.003 0.35742,-0.003 0.53216,0 0.003,0.0861 0.003,0.17474 0,0.26608 0.18003,-0.003 0.35742,-0.003 0.53216,0 0.003,0.0861 0.003,0.17474 0,0.26608 0.18003,-0.003 0.35742,-0.003 0.53216,0 0.003,0.17474 0.003,0.35213 0,0.53216 0.18003,-0.003 0.35742,-0.003 0.53216,0 0.0913,-0.003 0.18003,-0.003 0.26608,0 0.003,0.0861 0.003,0.17474 0,0.26608 0.0913,-0.003 0.18003,-0.003 0.26608,0 0.18004,-0.003 0.35742,-0.003 0.53216,0 0.0913,0.0861 0.18003,0.17474 0.26608,0.26608 0.18004,-0.003 0.35742,-0.003 0.53216,0 0.003,0.0861 0.003,0.17474 0,0.26608 0.18004,-0.003 0.35742,-0.003 0.53216,0 0.0913,-0.003 0.18004,-0.003 0.26608,0 0.0913,-0.003 0.18004,-0.003 0.26609,0 0.003,0.17474 0.003,0.35213 0,0.53216 0.18003,-0.003 0.35742,-0.003 0.53216,0 0.0913,-0.003 0.18003,-0.003 0.26608,0 0.0913,-0.003 0.18003,-0.003 0.26608,0 0.003,0.0861 0.003,0.17474 0,0.26608 0.18003,-0.003 0.35742,-0.003 0.53216,0 0.0913,-0.003 0.18003,-0.003 0.26608,0 0.0913,-0.003 0.18003,-0.003 0.26608,0 0.003,0.0861 0.003,0.17474 0,0.26608 0.18003,-0.003 0.35742,-0.003 0.53216,0 0.18003,-0.003 0.35742,-0.003 0.53216,0 0.0913,-0.003 0.18003,-0.003 0.26608,0 0.26873,0.0861 0.53481,0.17474 0.79824,0.26608 0.0913,-0.003 0.18003,-0.003 0.26608,0 0.0913,-0.003 0.18003,-0.003 0.26608,0 0.003,0.17474 0.003,0.35213 0,0.53216 0.18003,-0.003 0.35742,-0.003 0.53216,0 0.26873,-0.003 0.53481,-0.003 0.79824,0 0.26873,0.0861 0.53481,0.17474 0.79824,0.26608 0.0913,-0.003 0.18004,-0.003 0.26609,0 0.0913,-0.003 0.18003,-0.003 0.26607,0 0.26873,-0.003 0.53481,-0.003 0.79825,0 0.97827,-0.003 1.9539,-0.003 2.92688,0 0.35742,-0.003 0.71219,-0.003 1.06432,0 0.0913,-0.003 0.18003,-0.003 0.26608,0 0.003,-0.0913 0.003,-0.18003 0,-0.26608 0.0913,-0.003 0.18003,-0.003 0.26608,0 0.0913,-0.0913 0.18003,-0.18003 0.26608,-0.26608 0.0913,-0.0913 0.18003,-0.18003 0.26608,-0.26608 0.003,-0.0913 0.003,-0.18003 0,-0.26608 0.0913,-0.003 0.18004,-0.003 0.26608,0 0.003,-0.0913 0.003,-0.18003 0,-0.26608 0.18003,-0.003 0.35742,-0.003 0.53216,0 0.003,-0.18003 0.003,-0.35742 0,-0.53216 0.0913,-0.003 0.18004,-0.003 0.26608,0 0.003,-0.0913 0.003,-0.18003 0,-0.26608 0.0913,-0.003 0.18004,-0.003 0.26608,0 0.003,-0.0913 0.003,-0.18003 0,-0.26608 0.0913,-0.003 0.18004,-0.003 0.26608,0 0.003,-0.0913 0.003,-0.18003 0,-0.26608 0.0913,-0.003 0.18004,-0.003 0.26608,0 0.003,-0.18003 0.003,-0.35742 0,-0.53216 0.0913,-0.003 0.18004,-0.003 0.26608,0 0.003,-0.0913 0.003,-0.18003 0,-0.26608 0.0913,-0.18003 0.18004,-0.35742 0.26608,-0.53216" />
    <path
       style="fill:none;stroke:#000000;stroke-width:0.26458332px;stroke-linecap:butt;stroke-linejoin:miter;stroke-opacity:1"
       d="m 135.43489,217.1759 c 0.44658,-0.26795 0.89005,-0.53403 1.15587,-0.66613 0.26583,-0.13211 0.35456,-0.13211 0.44272,-0.22238 0.0882,-0.0903 0.17686,-0.26768 0.31043,-0.35478 0.13357,-0.0871 0.31096,-0.0871 0.66573,-0.0871 0.35478,0 0.88694,0 1.24171,0 0.35478,0 0.53216,0 0.66518,0 0.13302,0 0.22176,0 0.26478,-0.0456 0.043,-0.0456 0.043,-0.13439 0.13304,-0.17741 0.09,-0.043 0.2674,-0.043 0.48913,-0.043 0.22174,0 0.48782,0 1.15302,0 0.6652,0 1.72952,0 4.12424,0 2.39473,0 6.11985,0 9.13543,0 3.01558,0 5.32161,0 6.7407,0 1.4191,0 1.95126,0 2.30603,0 0.35478,0 0.53216,0 0.66518,0 0.13302,0 0.22176,0 0.35348,0.0887 0.13171,0.0887 0.3091,0.26609 0.48781,0.35478 0.17871,0.0887 0.35609,0.0887 0.66652,0.0887 0.31043,0 0.7539,0 1.06432,0 0.31043,0 0.48782,0 0.62084,0 0.13302,0 0.22175,0 0.35347,0.0887 0.13171,0.0887 0.3091,0.26609 0.48781,0.35478 0.17871,0.0887 0.3561,0.0887 0.66652,0.0887 0.31043,0 0.7539,0 1.15302,0 0.39912,0 0.7539,0 1.01865,0.0887 0.26476,0.0887 0.44214,0.26608 0.62086,0.35477 0.17871,0.0887 0.35609,0.0887 0.57782,0.0887 0.22174,0 0.48782,0 0.70955,0 0.22174,0 0.39912,0 0.57519,0.0887 0.17606,0.0887 0.35345,0.26609 0.53216,0.35478 0.17871,0.0887 0.3561,0.0887 0.48912,0.0887 0.13302,0 0.22175,0 0.35479,0 0.13304,0 0.31043,0 0.44215,0.0444 0.13172,0.0444 0.22041,0.13304 0.35477,0.17738 0.13436,0.0444 0.31175,0.0444 0.48913,0.0444 0.17739,0 0.35478,0 0.48623,0.0882 0.13145,0.0882 0.22015,0.26556 0.39912,0.35478 0.17898,0.0892 0.44506,0.0892 0.66601,0.13384 0.22094,0.0446 0.39831,0.1333 0.62084,0.17738 0.22253,0.0441 0.48861,0.0441 0.62032,0.13145 0.13172,0.0874 0.13172,0.26476 0.17737,0.35478 0.0456,0.09 0.13438,0.09 0.26742,0.09 0.13305,0 0.31043,0 0.3978,0.043 0.0874,0.043 0.0874,0.13169 0.13302,0.17736 0.0456,0.0457 0.13439,0.0457 0.2661,0.13437 0.13172,0.0887 0.3091,0.26608 0.44215,0.39912 0.13304,0.13304 0.22173,0.22173 0.26607,0.30913 0.0443,0.0874 0.0443,0.17604 0.09,0.2217 0.0456,0.0457 0.13439,0.0457 0.17741,0.0887 0.043,0.043 0.043,0.13169 0.043,0.22041 0,0.0887 0,0.17736 0,0.79821 0,0.62086 0,1.77388 0,2.48342 0,0.70955 0,0.97563 0,1.15304 0,0.17742 0,0.26606 -0.0874,0.3991 -0.0874,0.13304 -0.26476,0.31043 -0.35478,0.44349 -0.09,0.13307 -0.09,0.22171 -0.09,0.35475 0,0.13304 0,0.31043 -0.043,0.44347 -0.043,0.13304 -0.13172,0.22173 -0.17738,0.35477 -0.0457,0.13304 -0.0457,0.31043 -0.0457,0.44349 0,0.13307 0,0.22171 0,0.35475 0,0.13305 0,0.31043 -0.0871,0.444 -0.0871,0.13358 -0.26448,0.22226 -0.35477,0.35477 -0.0903,0.13252 -0.0903,0.3099 -0.0903,0.44292 0,0.13302 0,0.22176 -0.0874,0.3548 -0.0874,0.13304 -0.26475,0.31042 -0.35477,0.48781 -0.09,0.17739 -0.09,0.35477 -0.09,0.48779 0,0.13302 0,0.22176 0,0.3548 0,0.13304 0,0.31042 -0.0438,0.5319 -0.0438,0.22148 -0.13251,0.48754 -0.17738,0.70954 -0.0449,0.222 -0.0449,0.39939 -0.0449,0.57677 0,0.17739 0,0.35478 -0.0874,0.44479 -0.0874,0.09 -0.26475,0.09 -0.35477,0.13307 -0.09,0.043 -0.09,0.13169 -0.09,0.26473 0,0.13304 0,0.31043 0,0.48781 0,0.17739 0,0.35478 -0.0874,0.53216 -0.0874,0.17739 -0.26476,0.35478 -0.35478,0.53216 -0.09,0.17739 -0.09,0.35478 -0.09,0.48784 0,0.13307 0,0.22171 -0.0871,0.31094 -0.0871,0.0892 -0.26448,0.17791 -0.35476,0.31042 -0.0903,0.13251 -0.0903,0.3099 -0.0903,0.48729 0,0.17739 0,0.35477 0,0.53215 0,0.17739 0,0.35478 -0.043,0.48785 -0.043,0.13306 -0.13169,0.22171 -0.17736,0.35475 -0.0457,0.13304 -0.0457,0.31042 -0.0457,0.44344 0,0.13302 0,0.22176 -0.0874,0.3548 -0.0874,0.13304 -0.26476,0.31042 -0.35477,0.44349 -0.09,0.13307 -0.09,0.22171 -0.09,0.35475 0,0.13304 0,0.31042 0,0.44349 0,0.13307 0,0.22171 -0.0436,0.3545 -0.0436,0.13278 -0.13224,0.31015 -0.17738,0.4878 -0.0451,0.17765 -0.0451,0.35504 -0.0451,0.4881 0,0.13307 0,0.22171 0,0.31043 0,0.0887 0,0.17736 -0.0874,0.3104 -0.0874,0.13304 -0.26476,0.31043 -0.35478,0.48781 -0.09,0.17739 -0.09,0.35478 -0.09,0.48784 0,0.13307 0,0.22171 0,0.35475 0,0.13304 0,0.31043 -0.043,0.44349 -0.043,0.13307 -0.13169,0.22171 -0.17736,0.35475 -0.0457,0.13304 -0.0457,0.31043 -0.0457,0.44349 0,0.13307 0,0.22172 0,0.48779 0,0.26608 0,0.70955 0,1.3304 0,0.62086 0,1.4191 0,1.95126 0,0.53216 0,0.79824 0,0.97565 0,0.17742 0,0.26606 0.0444,0.35608 0.0443,0.09 0.13303,0.1787 0.17738,0.2661 0.0443,0.0874 0.0443,0.17604 0.09,0.22171 0.0456,0.0457 0.13438,0.0457 0.1774,0.0887 0.043,0.043 0.043,0.13169 0.0871,0.26552 0.0441,0.13382 0.13278,0.31123 0.17739,0.4435 0.0446,0.13227 0.0446,0.22091 0.13462,0.26658 0.09,0.0457 0.26741,0.0457 0.39886,0.13383 0.13145,0.0881 0.22015,0.26556 0.31041,0.35478 0.0903,0.0892 0.17899,0.0892 0.31071,0.17791 0.13171,0.0887 0.3091,0.26608 0.44215,0.39913 0.13304,0.13304 0.22173,0.22173 0.31172,0.26607 0.09,0.0444 0.17873,0.0444 0.22175,0.0874 0.043,0.0431 0.043,0.1317 0.13305,0.17736 0.09,0.0457 0.2674,0.0457 0.39885,0.13383 0.13145,0.0882 0.22015,0.26556 0.3986,0.39939 0.17846,0.13384 0.44452,0.22253 0.62109,0.31094 0.17657,0.0884 0.26531,0.17715 0.35531,0.22149 0.09,0.0444 0.17873,0.0444 0.22175,0.0874 0.043,0.043 0.043,0.13174 0.13304,0.1774 0.09,0.0457 0.2674,0.0457 0.40042,0.0457 0.13303,0 0.22176,0 0.26478,0.0874 0.043,0.0874 0.043,0.26476 0.0887,0.35478 0.0457,0.09 0.13438,0.09 0.26662,0.13463 0.13223,0.0446 0.30964,0.13331 0.44346,0.17739 0.13381,0.0441 0.22254,0.0441 0.31121,0.0441 0.0887,0 0.17741,0 0.22043,0.043 0.043,0.043 0.043,0.13174 0.13304,0.17741 0.09,0.0457 0.26741,0.0457 0.40043,0.0457 0.13302,0 0.22175,0 0.26477,0.0874 0.043,0.0874 0.043,0.26475 0.13304,0.35477 0.09,0.09 0.26741,0.09 0.44479,0.09 0.17739,0 0.35478,0 0.44215,0.043 0.0874,0.043 0.0874,0.13174 0.13302,0.17741 0.0457,0.0457 0.13438,0.0457 0.22305,0.0457 0.0887,0 0.17741,0 0.26608,0 0.0887,0 0.17741,0 0.22043,0.0874 0.043,0.0874 0.043,0.26476 0.0887,0.35477 0.0456,0.09 0.13438,0.09 0.26742,0.09 0.13304,0 0.31043,0 0.44215,0.0444 0.13172,0.0444 0.2204,0.13303 0.35477,0.17738 0.13437,0.0443 0.31175,0.0443 0.44347,0.0887 0.13172,0.0444 0.2204,0.13303 0.3104,0.17738 0.09,0.0444 0.17874,0.0444 0.26741,0.0444 0.0887,0 0.17741,0 0.26608,0 0.0887,0 0.17741,0 0.22043,0.043 0.043,0.043 0.043,0.13169 0.0887,0.17736 0.0456,0.0457 0.13438,0.0457 0.57784,0.0457 0.44347,0 1.24171,0 1.81822,0 0.57651,0 0.93128,0 1.15299,0 0.22172,0 0.31045,0 0.35347,-0.0457 0.043,-0.0456 0.043,-0.13438 0.13304,-0.17741 0.09,-0.043 0.26741,-0.043 0.35478,-0.0887 0.0874,-0.0457 0.0874,-0.13438 0.13302,-0.22306 0.0456,-0.0887 0.13438,-0.1774 0.22305,-0.22043 0.0887,-0.043 0.17741,-0.043 0.22043,-0.13304 0.043,-0.09 0.043,-0.2674 0.13305,-0.44479 0.09,-0.17739 0.2674,-0.35477 0.44214,-0.52951"
       id="path32"
       inkscape:connector-curvature="0"
       inkscape:path-effect="#path-effect34"
       inkscape:original-d="m 135.43489,217.1759 c 0.44611,-0.26873 0.88958,-0.53481 1.3304,-0.79824 0.0913,-0.003 0.18003,-0.003 0.26608,0 0.0913,-0.18003 0.18003,-0.35742 0.26608,-0.53216 0.18003,-0.003 0.35742,-0.003 0.53216,0 0.53481,-0.003 1.06697,-0.003 1.59648,0 0.18004,-0.003 0.35742,-0.003 0.53216,0 0.0913,-0.003 0.18004,-0.003 0.26608,0 0.003,-0.0913 0.003,-0.18004 0,-0.26608 0.18004,-0.003 0.35742,-0.003 0.53217,0 0.26872,-0.003 0.5348,-0.003 0.79824,0 1.06696,-0.003 2.13128,-0.003 3.19296,0 3.72777,-0.003 7.45289,-0.003 11.17537,0 2.30868,-0.003 4.61471,-0.003 6.91809,0 0.53481,-0.003 1.06697,-0.003 1.59648,0 0.18004,-0.003 0.35742,-0.003 0.53216,0 0.0913,-0.003 0.18004,-0.003 0.26609,0 0.18003,0.17474 0.35742,0.35213 0.53215,0.53216 0.18004,-0.003 0.35742,-0.003 0.53217,0 0.44611,-0.003 0.88958,-0.003 1.3304,0 0.18003,-0.003 0.35742,-0.003 0.53216,0 0.0913,-0.003 0.18003,-0.003 0.26608,0 0.18003,0.17474 0.35742,0.35213 0.53216,0.53216 0.18003,-0.003 0.35742,-0.003 0.53216,0 0.44611,-0.003 0.88958,-0.003 1.3304,0 0.35742,-0.003 0.7122,-0.003 1.06432,0 0.18004,0.17474 0.35742,0.35213 0.53216,0.53216 0.18004,-0.003 0.35742,-0.003 0.53216,0 0.26873,-0.003 0.53481,-0.003 0.79824,0 0.18004,-0.003 0.35742,-0.003 0.53217,0 0.18003,0.17474 0.35742,0.35213 0.53216,0.53216 0.18003,-0.003 0.35742,-0.003 0.53216,0 0.0913,-0.003 0.18003,-0.003 0.26608,0 0.18003,-0.003 0.35742,-0.003 0.53216,0 0.0913,0.0861 0.18003,0.17474 0.26608,0.26608 0.18003,-0.003 0.35742,-0.003 0.53216,0 0.18003,-0.003 0.35742,-0.003 0.53216,0 0.0913,0.17474 0.18003,0.35213 0.26608,0.53216 0.26873,-0.003 0.53481,-0.003 0.79824,0 0.18003,0.0861 0.35742,0.17474 0.53216,0.26608 0.26873,-0.003 0.53481,-0.003 0.79824,0 0.003,0.17474 0.003,0.35213 0,0.53216 0.0913,-0.003 0.18003,-0.003 0.26608,0 0.18004,-0.003 0.35742,-0.003 0.53216,0 0.003,0.0861 0.003,0.17474 0,0.26608 0.0913,-0.003 0.18004,-0.003 0.26608,0 0.18004,0.17474 0.35742,0.35213 0.53216,0.53216 0.0913,0.0861 0.18004,0.17474 0.26608,0.26608 0.003,0.0861 0.003,0.17475 0,0.26608 0.0913,-0.003 0.18004,-0.003 0.26609,0 0.003,0.0861 0.003,0.17474 0,0.26608 0.003,0.0861 0.003,0.17474 0,0.26608 0.003,1.15037 0.003,2.30339 0,3.45905 0.003,0.26343 0.003,0.52951 0,0.79824 0.003,0.0861 0.003,0.17474 0,0.26608 -0.17475,0.17474 -0.35213,0.35213 -0.53217,0.53216 0.003,0.0861 0.003,0.17474 0,0.26608 0.003,0.17474 0.003,0.35213 0,0.53216 -0.086,0.0861 -0.17474,0.17474 -0.26607,0.26608 0.003,0.17474 0.003,0.35213 0,0.53216 0.003,0.0861 0.003,0.17474 0,0.26608 0.003,0.17475 0.003,0.35213 0,0.53216 -0.17475,0.0861 -0.35213,0.17474 -0.53217,0.26608 0.003,0.17475 0.003,0.35213 0,0.53217 0.003,0.086 0.003,0.17474 0,0.26608 -0.17474,0.17474 -0.35212,0.35212 -0.53216,0.53216 0.003,0.17474 0.003,0.35212 0,0.53216 0.003,0.086 0.003,0.17474 0,0.26608 0.003,0.17474 0.003,0.35212 0,0.53216 -0.0861,0.26343 -0.17474,0.52951 -0.26608,0.79824 0.003,0.17474 0.003,0.35213 0,0.53216 0.003,0.17474 0.003,0.35213 0,0.53216 -0.17474,-0.003 -0.35212,-0.003 -0.53216,0 0.003,0.0861 0.003,0.17474 0,0.26608 0.003,0.17474 0.003,0.35213 0,0.53216 0.003,0.17474 0.003,0.35213 0,0.53216 -0.17474,0.17474 -0.35213,0.35213 -0.53216,0.53216 0.003,0.17474 0.003,0.35213 0,0.53216 0.003,0.0861 0.003,0.17474 0,0.26608 -0.17474,0.0861 -0.35213,0.17474 -0.53216,0.26608 0.003,0.17474 0.003,0.35213 0,0.53216 0.003,0.17475 0.003,0.35213 0,0.53217 0.003,0.17473 0.003,0.35212 0,0.53215 -0.0861,0.0861 -0.17474,0.17475 -0.26608,0.26609 0.003,0.17474 0.003,0.35212 0,0.53216 0.003,0.086 0.003,0.17474 0,0.26608 -0.17474,0.17474 -0.35213,0.35212 -0.53216,0.53216 0.003,0.0861 0.003,0.17474 0,0.26608 0.003,0.17474 0.003,0.35212 0,0.53216 0.003,0.0861 0.003,0.17474 0,0.26608 -0.0861,0.17474 -0.17474,0.35213 -0.26608,0.53216 0.003,0.17474 0.003,0.35213 0,0.53216 0.003,0.0861 0.003,0.17474 0,0.26608 0.003,0.0861 0.003,0.17474 0,0.26608 -0.17474,0.17474 -0.35213,0.35213 -0.53216,0.53216 0.003,0.17474 0.003,0.35213 0,0.53216 0.003,0.0861 0.003,0.17474 0,0.26608 0.003,0.17474 0.003,0.35213 0,0.53216 -0.0861,0.0861 -0.17474,0.17474 -0.26608,0.26608 0.003,0.17474 0.003,0.35213 0,0.53216 0.003,0.0861 0.003,0.17475 0,0.26609 0.003,0.44081 0.003,0.88428 0,1.3304 0.003,0.79559 0.003,1.59383 0,2.39472 0.003,0.26343 0.003,0.52951 0,0.79824 0.003,0.0861 0.003,0.17474 0,0.26608 0.0913,0.0861 0.18003,0.17474 0.26608,0.26608 0.003,0.0861 0.003,0.17474 0,0.26608 0.0913,-0.003 0.18003,-0.003 0.26608,0 0.003,0.0861 0.003,0.17474 0,0.26608 0.0913,0.17474 0.18003,0.35213 0.26608,0.53216 0.003,0.0861 0.003,0.17474 0,0.26608 0.18003,-0.003 0.35742,-0.003 0.53216,0 0.0913,0.17474 0.18003,0.35213 0.26608,0.53216 0.0913,-0.003 0.18003,-0.003 0.26608,0 0.18003,0.17474 0.35742,0.35213 0.53216,0.53216 0.0913,0.0861 0.18003,0.17475 0.26608,0.26608 0.0913,-0.003 0.18003,-0.003 0.26608,0 0.003,0.0861 0.003,0.17475 0,0.26608 0.18004,-0.003 0.35742,-0.003 0.53216,0 0.0913,0.17474 0.18003,0.35213 0.26608,0.53216 0.26873,0.0861 0.53481,0.17475 0.79824,0.26609 0.0913,0.086 0.18004,0.17474 0.26609,0.26608 0.0913,-0.003 0.18003,-0.003 0.26607,0 0.003,0.086 0.003,0.17474 0,0.26607 0.18004,-0.003 0.35742,-0.003 0.53217,0 0.0913,-0.003 0.18003,-0.003 0.26608,0 0.003,0.17475 0.003,0.35213 0,0.53217 0.0913,-0.003 0.18003,-0.003 0.26608,0 0.18003,0.086 0.35742,0.17474 0.53216,0.26608 0.0913,-0.003 0.18003,-0.003 0.26608,0 0.0913,-0.003 0.18003,-0.003 0.26608,0 0.003,0.086 0.003,0.17474 0,0.26608 0.18003,-0.003 0.35742,-0.003 0.53216,0 0.0913,-0.003 0.18003,-0.003 0.26608,0 0.003,0.17474 0.003,0.35212 0,0.53216 0.18003,-0.003 0.35742,-0.003 0.53216,0 0.18003,-0.003 0.35742,-0.003 0.53216,0 0.003,0.086 0.003,0.17474 0,0.26608 0.0913,-0.003 0.18003,-0.003 0.26608,0 0.0913,-0.003 0.18003,-0.003 0.26608,0 0.0913,-0.003 0.18003,-0.003 0.26608,0 0.003,0.17474 0.003,0.35213 0,0.53216 0.0913,-0.003 0.18003,-0.003 0.26608,0 0.18003,-0.003 0.35742,-0.003 0.53216,0 0.0913,0.0861 0.18003,0.17474 0.26608,0.26608 0.18004,-0.003 0.35742,-0.003 0.53216,0 0.0913,0.0861 0.18003,0.17474 0.26608,0.26608 0.0913,-0.003 0.18004,-0.003 0.26608,0 0.0913,-0.003 0.18004,-0.003 0.26608,0 0.0913,-0.003 0.18004,-0.003 0.26609,0 0.003,0.0861 0.003,0.17474 0,0.26608 0.0913,-0.003 0.18003,-0.003 0.26607,0 0.80089,-0.003 1.59913,-0.003 2.39473,0 0.35742,-0.003 0.71219,-0.003 1.06432,0 0.0913,-0.003 0.18003,-0.003 0.26608,0 0.003,-0.0913 0.003,-0.18003 0,-0.26608 0.18003,-0.003 0.35742,-0.003 0.53216,0 0.003,-0.0913 0.003,-0.18003 0,-0.26608 0.0913,-0.0913 0.18003,-0.18003 0.26608,-0.26608 0.0913,-0.003 0.18003,-0.003 0.26608,0 0.003,-0.18003 0.003,-0.35742 0,-0.53216 0.18003,-0.18004 0.35742,-0.35742 0.53216,-0.53216" />
    <g
       sodipodi:type="inkscape:box3d"
       id="g36"
       style="fill:#000000;fill-opacity:0;stroke:#000000;stroke-width:0.53079998;stroke-dasharray:none;stroke-opacity:1;marker-start:none;marker-end:none"
       inkscape:perspectiveID="#perspective8"
       inkscape:corner0="1.5479753 : 0.039324864 : 0 : 1"
       inkscape:corner7="0.33825405 : 0.0045118786 : 0.25 : 1">
      <path
         sodipodi:type="inkscape:box3dside"
         id="path38"
         style="fill:#353564;fill-rule:evenodd;stroke:none;stroke-linejoin:round"
         inkscape:box3dsidetype="6"
         d="m 47.096218,229.4156 v 13.663 l 17.236015,-0.54313 v -12.4422 z"
         points="47.096218,243.0786 64.332233,242.53547 64.332233,230.09327 47.096218,229.4156 " />
      <path
         sodipodi:type="inkscape:box3dside"
         id="path46"
         style="fill:#afafde;fill-rule:evenodd;stroke:none;stroke-linejoin:round"
         inkscape:box3dsidetype="13"
         d="m 47.096218,243.0786 42.572854,5.49478 23.662918,-1.82171 -48.999757,-4.2162 z"
         points="89.669072,248.57338 113.33199,246.75167 64.332233,242.53547 47.096218,243.0786 " />
      <path
         sodipodi:type="inkscape:box3dside"
         id="path48"
         style="fill:#e9e9ff;fill-rule:evenodd;stroke:none;stroke-linejoin:round"
         inkscape:box3dsidetype="11"
         d="m 64.332233,230.09327 48.999757,-5.26063 v 21.91903 l -48.999757,-4.2162 z"
         points="113.33199,224.83264 113.33199,246.75167 64.332233,242.53547 64.332233,230.09327 " />
      <path
         sodipodi:type="inkscape:box3dside"
         id="path40"
         style="fill:#4d4d9f;fill-rule:evenodd;stroke:none;stroke-linejoin:round"
         inkscape:box3dsidetype="5"
         d="m 47.096218,229.4156 42.572854,-6.85595 23.662918,2.27299 -48.999757,5.26063 z"
         points="89.669072,222.55965 113.33199,224.83264 64.332233,230.09327 47.096218,229.4156 " />
      <path
         sodipodi:type="inkscape:box3dside"
         id="path44"
         style="fill:#d7d7ff;fill-rule:evenodd;stroke:none;stroke-linejoin:round"
         inkscape:box3dsidetype="14"
         d="m 89.669072,222.55965 v 26.01373 l 23.662918,-1.82171 v -21.91903 z"
         points="89.669072,248.57338 113.33199,246.75167 113.33199,224.83264 89.669072,222.55965 " />
      <path
         sodipodi:type="inkscape:box3dside"
         id="path42"
         style="fill:#8686bf;fill-rule:evenodd;stroke:none;stroke-linejoin:round"
         inkscape:box3dsidetype="3"
         d="m 47.096218,229.4156 42.572854,-6.85595 v 26.01373 L 47.096218,243.0786 Z"
         points="89.669072,222.55965 89.669072,248.57338 47.096218,243.0786 47.096218,229.4156 " />
    </g>
    <g
       sodipodi:type="inkscape:box3d"
       id="g50"
       style="fill:#000000;fill-opacity:0;stroke:#000000;stroke-width:0.53079998;stroke-dasharray:none;stroke-opacity:1;marker-start:none;marker-end:none"
       inkscape:perspectiveID="#perspective8"
       inkscape:corner0="0.058836034 : 0.0096745857 : 0 : 1"
       inkscape:corner7="-0.03839736 : -0.0059690792 : 0.25 : 1">
      <path
         sodipodi:type="inkscape:box3dside"
         id="path52"
         style="fill:#353564;fill-rule:evenodd;stroke:none;stroke-linejoin:round"
         inkscape:box3dsidetype="6"
         d="m 113.33199,246.75167 v 14.77439 l 24.19479,-4.68471 v -11.95234 z"
         points="113.33199,261.52606 137.52678,256.84135 137.52678,244.88901 113.33199,246.75167 " />
      <path
         sodipodi:type="inkscape:box3dside"
         id="path60"
         style="fill:#afafde;fill-rule:evenodd;stroke:none;stroke-linejoin:round"
         inkscape:box3dsidetype="13"
         d="m 113.33199,261.52606 11.45968,2.47998 23.77189,-5.57238 -11.03678,-1.59231 z"
         points="124.79167,264.00604 148.56356,258.43366 137.52678,256.84135 113.33199,261.52606 " />
      <path
         sodipodi:type="inkscape:box3dside"
         id="path62"
         style="fill:#e9e9ff;fill-rule:evenodd;stroke:none;stroke-linejoin:round"
         inkscape:box3dsidetype="11"
         d="m 137.52678,244.88901 11.03678,0.6331 v 12.91155 l -11.03678,-1.59231 z"
         points="148.56356,245.52211 148.56356,258.43366 137.52678,256.84135 137.52678,244.88901 " />
      <path
         sodipodi:type="inkscape:box3dside"
         id="path54"
         style="fill:#4d4d9f;fill-rule:evenodd;stroke:none;stroke-linejoin:round"
         inkscape:box3dsidetype="5"
         d="m 113.33199,246.75167 11.45968,0.98604 23.77189,-2.2156 -11.03678,-0.6331 z"
         points="124.79167,247.73771 148.56356,245.52211 137.52678,244.88901 113.33199,246.75167 " />
      <path
         sodipodi:type="inkscape:box3dside"
         id="path58"
         style="fill:#d7d7ff;fill-rule:evenodd;stroke:none;stroke-linejoin:round"
         inkscape:box3dsidetype="14"
         d="m 124.79167,247.73771 v 16.26833 l 23.77189,-5.57238 v -12.91155 z"
         points="124.79167,264.00604 148.56356,258.43366 148.56356,245.52211 124.79167,247.73771 " />
      <path
         sodipodi:type="inkscape:box3dside"
         id="path56"
         style="fill:#8686bf;fill-rule:evenodd;stroke:none;stroke-linejoin:round"
         inkscape:box3dsidetype="3"
         d="m 113.33199,246.75167 11.45968,0.98604 v 16.26833 l -11.45968,-2.47998 z"
         points="124.79167,247.73771 124.79167,264.00604 113.33199,261.52606 113.33199,246.75167 " />
    </g>
    <path
       style="fill:none;stroke:#000000;stroke-width:0.26458332px;stroke-linecap:butt;stroke-linejoin:miter;stroke-opacity:1"
       d="m 47.096216,229.4156 c 30.067081,2.6608 38.315569,-25.27764 38.315569,-25.27764 0,0 -15.69874,40.97638 4.257286,25.54372 C 109.6251,214.24901 135.43489,217.1759 135.43489,217.1759"
       id="path64"
       inkscape:connector-curvature="0" />
  </g>
</svg>
